<svg class="animated" id="freepik_stories-id-card" xmlns="http://www.w3.org/2000/svg" viewBox="0 0 500 500" version="1.1" xmlns:xlink="http://www.w3.org/1999/xlink" xmlns:svgjs="http://svgjs.com/svgjs"><style>svg#freepik_stories-id-card:not(.animated) .animable {opacity: 0;}svg#freepik_stories-id-card.animated #freepik--id-card--inject-24 {animation: 1.5s Infinite  linear floating;animation-delay: 0s;}            @keyframes floating {                0% {                    opacity: 1;                    transform: translateY(0px);                }                50% {                    transform: translateY(-10px);                }                100% {                    opacity: 1;                    transform: translateY(0px);                }            }        </style><g id="freepik--background-simple--inject-24" class="animable" style="transform-origin: 271.339px 256.727px;"><path d="M186.39,78.37s-63.23,24.53-82.8,90.5S113.05,306.51,135,365.08s75.87,90.5,130.26,79,49.62-60.43,97.34-104.7,67.9-48.92,81.08-111.7S399.09,94.29,318.77,74.86,186.39,78.37,186.39,78.37Z" style="fill: #D99267; transform-origin: 271.339px 256.727px;" id="eltx5nymo2j5f" class="animable"></path><g id="elvq2ytsho4rr"><path d="M186.39,78.37s-63.23,24.53-82.8,90.5S113.05,306.51,135,365.08s75.87,90.5,130.26,79,49.62-60.43,97.34-104.7,67.9-48.92,81.08-111.7S399.09,94.29,318.77,74.86,186.39,78.37,186.39,78.37Z" style="fill: rgb(255, 255, 255); opacity: 0.75; transform-origin: 271.339px 256.727px;" class="animable" id="el9wvc8wmpnt"></path></g></g><g id="freepik--Device--inject-24" class="animable" style="transform-origin: 247.171px 253.08px;"><path d="M328.57,320.56H276.69a14.78,14.78,0,0,1-14.76-14.76V127.57a14.77,14.77,0,0,1,14.76-14.75h51.88v1H276.69a13.77,13.77,0,0,0-13.76,13.75V305.8a13.77,13.77,0,0,0,13.76,13.76h51.88Z" style="fill: rgb(38, 50, 56); transform-origin: 295.25px 216.69px;" id="elurfgy5imw" class="animable"></path><path d="M382.57,320.56H295.24a16,16,0,0,1-16-16V128.82a16,16,0,0,1,16-16h87.33a16,16,0,0,1,16,16V304.56A16,16,0,0,1,382.57,320.56ZM295.24,113.82a15,15,0,0,0-15,15V304.56a15,15,0,0,0,15,15h87.33a15,15,0,0,0,15-15V128.82a15,15,0,0,0-15-15Z" style="fill: rgb(38, 50, 56); transform-origin: 338.905px 216.69px;" id="elxiqda4vhhqq" class="animable"></path><path d="M381,152.31H296.13a4.78,4.78,0,1,1,0-9.55H381a4.78,4.78,0,1,1,0,9.55Zm-84.83-8.55a3.78,3.78,0,1,0,0,7.55H381a3.78,3.78,0,1,0,0-7.55Z" style="fill: rgb(38, 50, 56); transform-origin: 338.565px 147.535px;" id="elxskh1on8xq" class="animable"></path><path d="M381,293.3H296.13a4.78,4.78,0,1,1,0-9.56H381a4.78,4.78,0,1,1,0,9.56Zm-84.83-8.56a3.78,3.78,0,1,0,0,7.56H381a3.78,3.78,0,1,0,0-7.56Z" style="fill: rgb(38, 50, 56); transform-origin: 338.565px 288.52px;" id="elbm0yp8zanis" class="animable"></path><path d="M355.3,169.42H296.13a4.78,4.78,0,1,1,0-9.55H355.3a4.78,4.78,0,1,1,0,9.55Zm-59.17-8.55a3.78,3.78,0,1,0,0,7.55H355.3a3.78,3.78,0,1,0,0-7.55Z" style="fill: rgb(38, 50, 56); transform-origin: 325.715px 164.645px;" id="el0z83f0zedy0a" class="animable"></path><circle cx="373.12" cy="164.65" r="7.13" style="fill: #D99267; transform-origin: 373.12px 164.65px;" id="eldmfgbcylt18" class="animable"></circle><path d="M373.12,172.28a7.63,7.63,0,1,1,7.63-7.63A7.65,7.65,0,0,1,373.12,172.28Zm0-14.26a6.63,6.63,0,1,0,6.63,6.63A6.64,6.64,0,0,0,373.12,158Z" style="fill: rgb(38, 50, 56); transform-origin: 373.12px 164.65px;" id="el2588yxmmb9d" class="animable"></path><path d="M303.61,208.63a10.84,10.84,0,1,1,10.84-10.83A10.84,10.84,0,0,1,303.61,208.63Zm0-20.67a9.84,9.84,0,1,0,9.84,9.84A9.84,9.84,0,0,0,303.61,188Z" style="fill: rgb(38, 50, 56); transform-origin: 303.61px 197.79px;" id="elimlmmc6rf3l" class="animable"></path><path d="M338.9,208.63a10.84,10.84,0,1,1,10.84-10.83A10.85,10.85,0,0,1,338.9,208.63Zm0-20.67a9.84,9.84,0,1,0,9.84,9.84A9.85,9.85,0,0,0,338.9,188Z" style="fill: rgb(38, 50, 56); transform-origin: 338.9px 197.79px;" id="elz2y3z4azte" class="animable"></path><path d="M374.19,208.63A10.84,10.84,0,1,1,385,197.8,10.85,10.85,0,0,1,374.19,208.63Zm0-20.67A9.84,9.84,0,1,0,384,197.8,9.85,9.85,0,0,0,374.19,188Z" style="fill: rgb(38, 50, 56); transform-origin: 374.16px 197.79px;" id="el6hrykzj3bwo" class="animable"></path><path d="M303.61,235.73a10.84,10.84,0,1,1,10.84-10.84A10.85,10.85,0,0,1,303.61,235.73Zm0-20.68a9.84,9.84,0,1,0,9.84,9.84A9.84,9.84,0,0,0,303.61,215.05Z" style="fill: rgb(38, 50, 56); transform-origin: 303.61px 224.89px;" id="elf4q2sbetjfr" class="animable"></path><path d="M338.9,235.73a10.84,10.84,0,1,1,10.84-10.84A10.86,10.86,0,0,1,338.9,235.73Zm0-20.68a9.84,9.84,0,1,0,9.84,9.84A9.85,9.85,0,0,0,338.9,215.05Z" style="fill: rgb(38, 50, 56); transform-origin: 338.9px 224.89px;" id="elvxe286e7mre" class="animable"></path><path d="M374.19,235.73A10.84,10.84,0,1,1,385,224.89,10.86,10.86,0,0,1,374.19,235.73Zm0-20.68a9.84,9.84,0,1,0,9.84,9.84A9.85,9.85,0,0,0,374.19,215.05Z" style="fill: rgb(38, 50, 56); transform-origin: 374.16px 224.89px;" id="el5j5y9grd3jj" class="animable"></path><path d="M303.61,262.82A10.84,10.84,0,1,1,314.45,252,10.85,10.85,0,0,1,303.61,262.82Zm0-20.68a9.84,9.84,0,1,0,9.84,9.84A9.84,9.84,0,0,0,303.61,242.14Z" style="fill: rgb(38, 50, 56); transform-origin: 303.61px 251.98px;" id="el8k7w4krg03k" class="animable"></path><path d="M338.9,262.82A10.84,10.84,0,1,1,349.74,252,10.86,10.86,0,0,1,338.9,262.82Zm0-20.68a9.84,9.84,0,1,0,9.84,9.84A9.85,9.85,0,0,0,338.9,242.14Z" style="fill: rgb(38, 50, 56); transform-origin: 338.9px 251.98px;" id="ele9biu0dtzyv" class="animable"></path><path d="M374.19,262.82A10.84,10.84,0,1,1,385,252,10.86,10.86,0,0,1,374.19,262.82Zm0-20.68A9.84,9.84,0,1,0,384,252,9.85,9.85,0,0,0,374.19,242.14Z" style="fill: rgb(38, 50, 56); transform-origin: 374.16px 251.98px;" id="el5vxkobpfca3" class="animable"></path><rect x="195.18" y="64.58" width="1" height="377" style="fill: rgb(38, 50, 56); transform-origin: 195.68px 253.08px;" id="elixmhb2tt55n" class="animable"></rect><rect x="206.61" y="64.58" width="1" height="377" style="fill: rgb(38, 50, 56); transform-origin: 207.11px 253.08px;" id="elm2wxsetogwj" class="animable"></rect><rect x="246.18" y="64.58" width="1" height="377" style="fill: rgb(38, 50, 56); transform-origin: 246.68px 253.08px;" id="eloszxusdnya" class="animable"></rect><g id="el6mxkuu65fr8"><rect x="78.59" y="158.29" width="133.31" height="1" style="fill: rgb(38, 50, 56); transform-origin: 145.245px 158.79px; transform: rotate(-42.51deg);" class="animable" id="elk652zb2pne"></rect></g><g id="elpna0m41tqos"><rect x="147.96" y="162.18" width="10.65" height="1" style="fill: rgb(38, 50, 56); transform-origin: 153.285px 162.68px; transform: rotate(-42.51deg);" class="animable" id="elhk2vgyijkt"></rect></g><g id="eludjoiozrn8"><rect x="161.2" y="137.42" width="38.21" height="1" style="fill: rgb(38, 50, 56); transform-origin: 180.305px 137.92px; transform: rotate(-42.51deg);" class="animable" id="elzfgnsbhvkdl"></rect></g><g id="elsdqsudq7hmf"><rect x="122.02" y="229.2" width="83.32" height="1" style="fill: rgb(38, 50, 56); transform-origin: 163.68px 229.7px; transform: rotate(-42.47deg);" class="animable" id="el224g97xitgc"></rect></g><g id="elk1y90rmigf"><rect x="165.38" y="231.63" width="6.66" height="1" style="fill: rgb(38, 50, 56); transform-origin: 168.71px 232.13px; transform: rotate(-42.51deg);" class="animable" id="elfrgckg21h8j"></rect></g><g id="el6zcb34322jc"><rect x="173.65" y="216.16" width="23.88" height="1" style="fill: rgb(38, 50, 56); transform-origin: 185.59px 216.66px; transform: rotate(-42.51deg);" class="animable" id="eljibz0d3xe6"></rect></g></g><g id="freepik--Plant--inject-24" class="animable" style="transform-origin: 136.611px 324.491px;"><path d="M139.91,303.2c-3.51,8.64-7.1,1.69-6.53-34.53.27-17,1.46-51.67,20.24-44,18,7.33-5.73,58.62-5.73,58.62Zm25.78,5.14s39.15-40.79,24.47-53.59c-15.28-13.32-27.68,19.1-33.45,35.07-12.3,34.08-11.16,41.82-5,34.78ZM174,345s35.84-25.52,26.47-37.43c-9.76-12.4-23.93,10.59-30.66,22-14.34,24.27-14.59,30.35-8.89,25.86Zm9.7,36.49s35.84-25.51,26.47-37.42c-9.76-12.4-23.93,10.59-30.65,22-14.35,24.27-14.6,30.35-8.9,25.86Zm-62.59-73.38s-50.14-26.1-58.3-8.41c-8.49,18.4,26.11,21.19,43.06,22.23,36.16,2.23,43.27-1,34.79-4.93Zm7.06,28.74s-54.33-15.62-58.81,3.34c-4.66,19.72,29.8,15.58,46.62,13.23,35.88-5,42.2-9.62,33.12-11.75Zm12.44,31.32s-46.31-11.94-49.66,4.19c-3.48,16.79,25.57,12.48,39.73,10.11,30.23-5.06,35.47-9.11,27.74-10.7ZM147.81,394S103,377.19,98,392.88c-5.25,16.32,24.09,15.12,38.43,14.27,30.6-1.83,36.23-5.3,28.72-7.7Zm-30-131s-20.45-63.53-43.65-52C50,223,77.93,251.64,91.89,265.36c29.79,29.26,39,31.32,35.08,21.1Z" style="fill: #D99267; transform-origin: 136.611px 308.588px;" id="elaxhd5jd6jzn" class="animable"></path><g id="el5hsmslc2xaf"><path d="M139.91,303.2c-3.51,8.64-7.1,1.69-6.53-34.53.27-17,1.46-51.67,20.24-44,18,7.33-5.73,58.62-5.73,58.62Zm25.78,5.14s39.15-40.79,24.47-53.59c-15.28-13.32-27.68,19.1-33.45,35.07-12.3,34.08-11.16,41.82-5,34.78ZM174,345s35.84-25.52,26.47-37.43c-9.76-12.4-23.93,10.59-30.66,22-14.34,24.27-14.59,30.35-8.89,25.86Zm9.7,36.49s35.84-25.51,26.47-37.42c-9.76-12.4-23.93,10.59-30.65,22-14.35,24.27-14.6,30.35-8.9,25.86Zm-62.59-73.38s-50.14-26.1-58.3-8.41c-8.49,18.4,26.11,21.19,43.06,22.23,36.16,2.23,43.27-1,34.79-4.93Zm7.06,28.74s-54.33-15.62-58.81,3.34c-4.66,19.72,29.8,15.58,46.62,13.23,35.88-5,42.2-9.62,33.12-11.75Zm12.44,31.32s-46.31-11.94-49.66,4.19c-3.48,16.79,25.57,12.48,39.73,10.11,30.23-5.06,35.47-9.11,27.74-10.7ZM147.81,394S103,377.19,98,392.88c-5.25,16.32,24.09,15.12,38.43,14.27,30.6-1.83,36.23-5.3,28.72-7.7Zm-30-131s-20.45-63.53-43.65-52C50,223,77.93,251.64,91.89,265.36c29.79,29.26,39,31.32,35.08,21.1Z" style="fill: rgb(255, 255, 255); opacity: 0.4; transform-origin: 136.611px 308.588px;" class="animable" id="eld5656euseqv"></path></g><path d="M172.92,439.38a.62.62,0,0,1-.62-.59c-1.92-33.81-11.4-75.29-25.37-111-12.11-30.91-63-93.2-63.53-93.83a.63.63,0,0,1,.09-.88.62.62,0,0,1,.88.09c.52.63,51.55,63.08,63.73,94.17,14,35.77,23.53,77.39,25.45,111.33a.63.63,0,0,1-.59.66Z" style="fill: rgb(38, 50, 56); transform-origin: 128.406px 336.159px;" id="el0kstholpkro" class="animable"></path><path d="M137.29,307.79h-.07a.63.63,0,0,1-.55-.7l7.14-59.73a.63.63,0,1,1,1.25.15l-7.14,59.73A.64.64,0,0,1,137.29,307.79Z" style="fill: rgb(38, 50, 56); transform-origin: 140.867px 277.285px;" id="elts9trcw0b9q" class="animable"></path><path d="M147.52,328.24a.59.59,0,0,1-.29-.07.62.62,0,0,1-.27-.84l25.83-50.21a.62.62,0,1,1,1.11.57L148.07,327.9A.61.61,0,0,1,147.52,328.24Z" style="fill: rgb(38, 50, 56); transform-origin: 160.429px 302.511px;" id="elwi4eft69ma9" class="animable"></path><path d="M143.74,320.8h-.12l-54.09-11a.63.63,0,0,1,.25-1.23l54.09,11a.63.63,0,0,1-.13,1.24Z" style="fill: rgb(38, 50, 56); transform-origin: 116.712px 314.688px;" id="ele6vsfnh7mxk" class="animable"></path><path d="M157.68,356.73a.61.61,0,0,1-.41-.15.63.63,0,0,1-.06-.89L189,319.46a.63.63,0,0,1,.89-.06.62.62,0,0,1,0,.88l-31.8,36.24A.64.64,0,0,1,157.68,356.73Z" style="fill: rgb(38, 50, 56); transform-origin: 173.564px 337.987px;" id="elxsva0skigs" class="animable"></path><path d="M153.23,344.79h0l-40.84-.35a.63.63,0,0,1-.62-.63.62.62,0,0,1,.63-.62h0l40.84.35a.64.64,0,0,1,.62.63A.62.62,0,0,1,153.23,344.79Z" style="fill: rgb(38, 50, 56); transform-origin: 132.815px 343.99px;" id="elztdklny7hik" class="animable"></path><path d="M129.78,375.68a.63.63,0,0,1,0-1.25l31.32-1.24a.63.63,0,1,1,.05,1.25l-31.32,1.24Z" style="fill: rgb(38, 50, 56); transform-origin: 145.53px 374.431px;" id="el4ne7x8w1pfr" class="animable"></path><path d="M167.53,393.36a.68.68,0,0,1-.38-.12.63.63,0,0,1-.12-.88L183.8,370a.63.63,0,0,1,.88-.13.63.63,0,0,1,.12.88L168,393.11A.6.6,0,0,1,167.53,393.36Z" style="fill: rgb(38, 50, 56); transform-origin: 175.915px 381.553px;" id="elytswy8j7ila" class="animable"></path><path d="M168.76,401.68h0l-36.63-1.82a.62.62,0,0,1-.59-.65.61.61,0,0,1,.66-.6l36.63,1.82a.63.63,0,0,1,.59.66A.63.63,0,0,1,168.76,401.68Z" style="fill: rgb(38, 50, 56); transform-origin: 150.48px 400.144px;" id="elqv7xp28k2dm" class="animable"></path></g><g id="freepik--id-card--inject-24" class="animable" style="transform-origin: 261.137px 238.106px;"><path d="M135.31,391.86a61.5,61.5,0,0,1-11.2-1c-11.76-2.19-21.4-8.41-26.46-17.07-8.29-14.22-3-32.29,5.84-43.9,11.26-14.72,28.23-23.26,43.35-29.68,29-12.3,59.72-20.2,89.46-27.84,8.5-2.18,17.29-4.44,25.91-6.77,4.3-1.16,8.69-2.3,13.13-3.45,31.47-8.17,67.14-17.43,90.73-40.68,17.08-16.83,29.75-36.4,36.61-56.58a86.37,86.37,0,0,0,4.94-26.14,134.82,134.82,0,0,0-2.06-28.6l-.65-.49c-14.44-10.91-30.53-17.56-44.14-18.25C339.09,90.33,296,98,272.91,123.37l-1,1.1a242,242,0,0,0-25.79,39.43,2,2,0,1,1-3.59-1.76,221.65,221.65,0,0,1,13.09-22.21,2,2,0,0,1,.21-2,188.28,188.28,0,0,1,12.11-15q1.51-1.91,3.09-3.82c16.69-20.17,43.52-45,76.53-49,21.17-2.54,36.62.89,47.22,10.48,7,6.34,11.76,15.28,14.39,27.35,16,12.91,22.26,29.23,18.57,48.54-5.55,29-20.79,50.6-38.67,73.81C341.52,292,289.75,337,235.23,363.78a295.85,295.85,0,0,1-79.83,26A117.11,117.11,0,0,1,135.31,391.86Zm275-277.64a151.49,151.49,0,0,1,1.31,24.63,90.5,90.5,0,0,1-5.15,27.35c-7.07,20.77-20.07,40.87-37.59,58.14-24.36,24-60.58,33.4-92.53,41.7-4.43,1.15-8.81,2.29-13.09,3.44-8.65,2.34-17.45,4.6-26,6.79-29.59,7.6-60.19,15.46-88.89,27.64-14.63,6.22-31,14.45-41.73,28.43-8.07,10.55-12.92,26.84-5.56,39.45,4.47,7.66,13.12,13.18,23.73,15.16,10,1.85,20.25.55,29.87-1.12a291.6,291.6,0,0,0,78.75-25.64C286.67,334,339.39,288.25,385.9,227.83c17.56-22.8,32.53-44,37.91-72.12C426.91,139.51,422.37,125.59,410.31,114.22ZM360.26,73.28a104.87,104.87,0,0,0-12.22.78c-22.67,2.72-42.54,15.77-58.57,31.12,24-14.1,54.27-18.62,71.5-17.74,17.55.89,33.58,10,43.13,16.7-2.56-8.89-6.53-15.66-12-20.61C384.51,76.67,374,73.28,360.26,73.28Z" style="fill: rgb(38, 50, 56); transform-origin: 261.137px 230.581px;" id="elcabcdawjw45" class="animable"></path><path d="M185.48,208.85,212.93,402a5.16,5.16,0,0,0,5.82,4.37l116.88-16.62a5.15,5.15,0,0,0,4.37-5.82L312.54,190.79a5.14,5.14,0,0,0-5.81-4.37L189.84,203A5.13,5.13,0,0,0,185.48,208.85Zm76.45-3.34-23.75,3.37a3.89,3.89,0,1,1-1.09-7.71l23.74-3.38a3.9,3.9,0,1,1,1.1,7.72Z" style="fill: rgb(255, 255, 255); transform-origin: 262.736px 296.394px;" id="el7xyurqia13f" class="animable"></path><path d="M218,406.91a5.65,5.65,0,0,1-5.58-4.85L185,208.92a5.66,5.66,0,0,1,4.79-6.38l116.89-16.61a5.65,5.65,0,0,1,6.38,4.79l27.45,193.13a5.62,5.62,0,0,1-4.79,6.38L218.82,406.85A5.49,5.49,0,0,1,218,406.91Zm89.43-220a4.87,4.87,0,0,0-.65,0L189.91,203.53a4.64,4.64,0,0,0-3.94,5.25l27.46,193.14a4.65,4.65,0,0,0,5.25,3.94l116.88-16.62A4.62,4.62,0,0,0,339.5,384L312.05,190.86A4.66,4.66,0,0,0,307.45,186.87Zm-69.82,22.55a4.4,4.4,0,0,1-.61-8.75l23.74-3.37a4.36,4.36,0,0,1,3.26.83,4.39,4.39,0,0,1,.88,6.16A4.36,4.36,0,0,1,262,206l-23.75,3.38A4.3,4.3,0,0,1,237.63,209.42Zm23.76-11.17a2.77,2.77,0,0,0-.49,0l-23.74,3.37a3.4,3.4,0,1,0,1,6.73L261.86,205a3.34,3.34,0,0,0,2.24-1.32,3.44,3.44,0,0,0,.65-2.52,3.41,3.41,0,0,0-3.36-2.92Z" style="fill: rgb(38, 50, 56); transform-origin: 262.758px 296.392px;" id="elcvphnmr3rz6" class="animable"></path><g id="elmvrg2g13flr"><rect x="205.96" y="215.82" width="115.65" height="175.98" style="fill: #D99267; transform-origin: 263.785px 303.81px; transform: rotate(-8.09deg);" class="animable" id="eldxqsjze1vp"></rect></g><path d="M218.92,399.56a.5.5,0,0,1-.49-.43L193.66,224.91a.51.51,0,0,1,.1-.38.48.48,0,0,1,.32-.19l114.51-16.28a.5.5,0,0,1,.37.1.44.44,0,0,1,.19.33l24.77,174.22a.5.5,0,0,1-.42.57L219,399.56Zm-24.2-174.3L219.35,398.5l113.51-16.14L308.23,209.12Z" style="fill: rgb(38, 50, 56); transform-origin: 263.79px 303.808px;" id="eltytue0tqluc" class="animable"></path><path d="M232,157.15l6.49,45.66a1.76,1.76,0,0,0,2,1.5l17.87-2.54a1.76,1.76,0,0,0,1.5-2l-6.49-45.66Zm12.36,10.26a3.8,3.8,0,1,1,3.23-4.3A3.81,3.81,0,0,1,244.4,167.41Z" style="fill: rgb(255, 255, 255); transform-origin: 245.939px 179.219px;" id="ely4lozjgmmdn" class="animable"></path><path d="M240.28,204.83a2.27,2.27,0,0,1-2.24-2l-6.5-45.66a.52.52,0,0,1,.43-.57l21.37-3a.53.53,0,0,1,.37.1.5.5,0,0,1,.2.33l6.49,45.66a2.27,2.27,0,0,1-1.93,2.57l-17.87,2.54Zm-7.68-47.26L239,202.74a1.27,1.27,0,0,0,1.43,1.08l17.87-2.54a1.29,1.29,0,0,0,.84-.5,1.26,1.26,0,0,0,.24-.94L253,154.68Zm11.26,10.37a4.28,4.28,0,1,1,.61,0h0A4.17,4.17,0,0,1,243.86,167.94Zm.54-.53h0Zm-.53-7.06-.47,0a3.27,3.27,0,0,0-2.17,1.28,3.31,3.31,0,0,0-.63,2.45,3.27,3.27,0,0,0,1.28,2.17,3.31,3.31,0,0,0,2.45.63h0a3.3,3.3,0,0,0,1.52-5.9A3.25,3.25,0,0,0,243.87,160.35Z" style="fill: rgb(38, 50, 56); transform-origin: 245.98px 179.214px;" id="elc9agj97xny" class="animable"></path><g id="el71ze682sh7n"><path d="M236.69,175h21.59a0,0,0,0,1,0,0v26.26a1.92,1.92,0,0,1-1.92,1.92H238.61a1.92,1.92,0,0,1-1.92-1.92V175A0,0,0,0,1,236.69,175Z" style="fill: rgb(255, 255, 255); transform-origin: 247.485px 189.09px; transform: rotate(-8.09deg);" class="animable" id="eltv87o9za0wf"></path></g><path d="M240.41,204.81a2.44,2.44,0,0,1-2.4-2.08l-3.69-26a.48.48,0,0,1,.09-.37.5.5,0,0,1,.33-.2l21.38-3a.51.51,0,0,1,.56.43l3.7,26a2.43,2.43,0,0,1-2.06,2.74l-17.57,2.5Zm-5-27.73L239,202.59a1.42,1.42,0,0,0,1.61,1.2l17.57-2.49a1.42,1.42,0,0,0,1.21-1.61l-3.63-25.51Z" style="fill: rgb(38, 50, 56); transform-origin: 247.358px 188.993px;" id="elxp9hrqd6a1c" class="animable"></path><path d="M250.5,182.6a3.9,3.9,0,1,0-3.31,4.41A3.91,3.91,0,0,0,250.5,182.6Z" style="fill: rgb(255, 255, 255); transform-origin: 246.638px 183.149px;" id="elmrzcvzgh2v" class="animable"></path><path d="M246.63,187.55a4.34,4.34,0,0,1-2.63-.88,4.39,4.39,0,0,1,2-7.87,4.38,4.38,0,0,1,5,3.73,4.4,4.4,0,0,1-3.73,5A4.46,4.46,0,0,1,246.63,187.55Zm0-7.8a2.63,2.63,0,0,0-.49,0,3.39,3.39,0,0,0-1.56,6.08,3.4,3.4,0,0,0,5.4-3.2h0a3.39,3.39,0,0,0-3.35-2.92Z" style="fill: rgb(38, 50, 56); transform-origin: 246.638px 183.152px;" id="elu61t8a3nb1c" class="animable"></path><path d="M248.07,183a1.45,1.45,0,0,0-2.87.4,1.45,1.45,0,1,0,2.87-.4Z" style="fill: rgb(255, 255, 255); transform-origin: 246.643px 183.257px;" id="elbsirrhomeg5" class="animable"></path><path d="M246.64,185.1a2,2,0,1,1,1.93-2.22h0a2,2,0,0,1-.37,1.44,1.93,1.93,0,0,1-1.29.76Zm0-2.9h-.14a1,1,0,0,0-.8,1.07,1,1,0,0,0,1.07.81,1,1,0,0,0,.63-.37,1,1,0,0,0,.18-.7A1,1,0,0,0,246.64,182.2Z" style="fill: rgb(38, 50, 56); transform-origin: 246.584px 183.101px;" id="elanx8jwk14wc" class="animable"></path><path d="M243.14,158.55a5.15,5.15,0,1,0,5.82,4.37A5.14,5.14,0,0,0,243.14,158.55Zm1.26,8.86a3.8,3.8,0,1,1,3.23-4.3A3.81,3.81,0,0,1,244.4,167.41Z" style="fill: rgb(255, 255, 255); transform-origin: 243.862px 163.648px;" id="elt554j20lwo" class="animable"></path><path d="M243.86,169.3a5.65,5.65,0,0,1-4.51-9.05,5.58,5.58,0,0,1,3.72-2.2h0a5.62,5.62,0,0,1,4.19,1.08,5.56,5.56,0,0,1,2.2,3.72,5.66,5.66,0,0,1-4.8,6.39A5.39,5.39,0,0,1,243.86,169.3ZM243.21,159a4.66,4.66,0,1,0,3.45.89,4.6,4.6,0,0,0-3.45-.89Zm-.07-.49h0Zm.72,9.39a4.3,4.3,0,0,1-.6-8.55,4.3,4.3,0,0,1,1.21,8.51h0A4.17,4.17,0,0,1,243.86,167.94Zm.54-.53h0Zm-.53-7.06a3.71,3.71,0,0,0-.47,0,3.27,3.27,0,0,0-2.17,1.28,3.31,3.31,0,0,0-.63,2.45,3.27,3.27,0,0,0,1.28,2.17,3.3,3.3,0,1,0,2-5.93Z" style="fill: rgb(38, 50, 56); transform-origin: 243.864px 163.646px;" id="elrdfw3p1eeud" class="animable"></path><g id="el4bzfmds8rld"><rect x="221.43" y="223.43" width="78.15" height="114.51" style="fill: rgb(255, 255, 255); transform-origin: 260.505px 280.685px; transform: rotate(-8.09deg);" class="animable" id="elp6wjumxxyl"></rect></g><path d="M229.88,343.37a.5.5,0,0,1-.31-.1.53.53,0,0,1-.19-.33L213.26,229.57a.51.51,0,0,1,.43-.57l77.37-11a.51.51,0,0,1,.57.43L307.75,331.8a.53.53,0,0,1-.1.37.5.5,0,0,1-.33.2l-77.37,11ZM214.32,229.92l16,112.39,76.39-10.86-16-112.38Z" style="fill: rgb(38, 50, 56); transform-origin: 260.504px 280.683px;" id="elw0f3rvfx5j8" class="animable"></path><path d="M229.88,342.87c14.76-2,61.35-9,77.37-11-1.32-9.26-3.06-21.3-3.27-27.07-2.09-1.5-5.74-2.79-11-5.57-8.25-4.35-21.64-13.49-21.64-13.49l-5.44.58-.05-.32-4.35.78-4.41.46,0,.32-5.39,1s-10.31,12.51-17,19c-4.42,4.27-7.18,6.22-8.71,8.3C226.11,316.21,228.38,332.17,229.88,342.87Z" style="fill: rgb(255, 255, 255); transform-origin: 266.62px 314.305px;" id="elwn5frnq26ef" class="animable"></path><path d="M229.87,343.25a.38.38,0,0,1-.37-.33c-1.51-10.79-3.75-26.6-3.84-27a.35.35,0,0,1,.07-.3,28.54,28.54,0,0,1,4.14-4.11c1.25-1.11,2.81-2.49,4.61-4.24,6.62-6.38,16.89-18.82,17-18.95a.36.36,0,0,1,.23-.13l5-.9a.33.33,0,0,1,.08-.25.35.35,0,0,1,.25-.14l4.41-.46,4.33-.78a.35.35,0,0,1,.28.06.37.37,0,0,1,.15.22l5.08-.54a.42.42,0,0,1,.25.06c.14.1,13.47,9.18,21.6,13.47,2.29,1.21,4.24,2.12,6,2.92a33,33,0,0,1,5.08,2.68.36.36,0,0,1,.16.29c.19,5.47,1.79,16.67,3.07,25.67l.19,1.36a.35.35,0,0,1-.07.28.41.41,0,0,1-.25.15c-10.1,1.23-31.88,4.41-51.1,7.21-11.17,1.63-20.81,3-26.27,3.78Zm-3.45-27.34c.29,1.83,2.45,17.09,3.77,26.54,5.52-.76,15-2.14,25.9-3.73,19-2.77,40.47-5.9,50.74-7.17l-.14-1c-1.27-8.92-2.85-20-3.07-25.57a36.23,36.23,0,0,0-4.82-2.5c-1.72-.8-3.68-1.72-6-2.94-7.76-4.09-20.23-12.53-21.56-13.43l-5.3.56a.4.4,0,0,1-.4-.26l-4,.72-4.05.43a.36.36,0,0,1-.31.35l-5.25.94c-1,1.24-10.64,12.81-17,18.91-1.81,1.76-3.38,3.15-4.64,4.26A30.94,30.94,0,0,0,226.42,315.91Z" style="fill: rgb(38, 50, 56); transform-origin: 266.648px 314.334px;" id="elshnj6enufyo" class="animable"></path><path d="M304,304.8a46.26,46.26,0,0,0-6.39-3.28l-.55-.26-.73-.35-1-.49-.59-.3c-.56-.28-1.13-.57-1.73-.89-8.25-4.35-21.64-13.49-21.64-13.49l-5.44.58-.05-.32-4.35.78-4.41.46,0,.32-5.39,1s-10.31,12.51-17,19c-.45.44-.88.85-1.31,1.25-3.66,3.41-6,5.18-7.4,7.05,0,.14.3,2.05.72,4.93l77.6-11C304.16,307.82,304,306.14,304,304.8Z" style="fill: rgb(38, 50, 56); transform-origin: 265.18px 303.265px;" id="eljxm7aq0vr9p" class="animable"></path><path d="M305.33,318l-77.41,11c.4,2.85.83,5.87,1.24,8.76l77.36-11C306.11,323.86,305.7,320.86,305.33,318Z" style="fill: rgb(38, 50, 56); transform-origin: 267.22px 327.88px;" id="elmt86sgszee" class="animable"></path><path d="M264.08,306.76l2.9,18.52,4.64-.66-4.48-18.56S264.45,305.66,264.08,306.76Z" style="fill: rgb(255, 255, 255); transform-origin: 267.85px 315.635px;" id="el3syungebdxu" class="animable"></path><path d="M267,325.65a.38.38,0,0,1-.37-.31l-2.9-18.52a.37.37,0,0,1,0-.18c.45-1.36,3.16-1,3.47-.95a.36.36,0,0,1,.3.28L272,324.53a.36.36,0,0,1-.05.3.38.38,0,0,1-.26.16l-4.64.66Zm-2.51-18.84,2.82,18,3.87-.55-4.32-17.9C265.93,306.31,264.73,306.37,264.47,306.81Z" style="fill: rgb(38, 50, 56); transform-origin: 267.866px 315.63px;" id="eludzll9a5chn" class="animable"></path><path d="M267.21,311.81a.74.74,0,0,0-.84-.63.74.74,0,1,0,.84.63Z" style="fill: rgb(255, 255, 255); transform-origin: 266.477px 311.912px;" id="elgpoxuq38vk" class="animable"></path><path d="M266.48,313a1.09,1.09,0,0,1-.67-.23,1.14,1.14,0,0,1-.44-.73,1.12,1.12,0,0,1,.22-.83,1.11,1.11,0,0,1,2,.51,1.07,1.07,0,0,1-.21.83,1.09,1.09,0,0,1-.73.43Zm0-1.49h-.05a.33.33,0,0,0-.24.14.33.33,0,0,0-.07.27.33.33,0,0,0,.14.24.38.38,0,0,0,.27.07.33.33,0,0,0,.24-.14.37.37,0,0,0,.07-.27A.37.37,0,0,0,266.48,311.54Z" style="fill: rgb(38, 50, 56); transform-origin: 266.482px 311.876px;" id="elucdh1rjm4c9" class="animable"></path><path d="M269.21,320.62a.74.74,0,1,0-1.46.21.73.73,0,0,0,.83.63A.74.74,0,0,0,269.21,320.62Z" style="fill: rgb(255, 255, 255); transform-origin: 268.475px 320.696px;" id="elfnnmo94nt8a" class="animable"></path><path d="M268.48,321.84a1.1,1.1,0,0,1-1.1-1,1,1,0,0,1,.21-.82,1.11,1.11,0,0,1,2,.51,1.07,1.07,0,0,1-.21.83,1.13,1.13,0,0,1-.73.43Zm0-1.48h-.05a.37.37,0,1,0,.34.59.34.34,0,0,0,.07-.27h0A.36.36,0,0,0,268.48,320.36Z" style="fill: rgb(38, 50, 56); transform-origin: 268.483px 320.701px;" id="el0lb43iz9d8o" class="animable"></path><path d="M252.54,282.9s-3,1.21-3.83,6.33-.09,17.89-.46,20.83.48,3.35,2.43,2.29,3.76-5,6.85-5.45a41.34,41.34,0,0,1,8.17.15s4.5-3.53,7.59-4,7.76,4.68,9,4.5-1.83-11-4.66-18-7.69-9.69-13.1-8.92S252.54,282.9,252.54,282.9Z" style="fill: rgb(255, 255, 255); transform-origin: 265.369px 296.692px;" id="elhqb5f8xmt3" class="animable"></path><path d="M249.14,313.26a1.22,1.22,0,0,1-.7-.2c-.6-.41-.77-1.35-.56-3.05.14-1.15.11-3.9.07-7.08-.06-4.75-.13-10.66.39-13.77.87-5.26,3.93-6.56,4.06-6.61l.06,0c.07,0,6.7-1.48,12.07-2.24,6-.85,10.75,2.4,13.5,9.15,2.23,5.48,5.76,16.56,4.82,18.19a.61.61,0,0,1-.45.32c-.63.09-1.48-.5-3.06-1.64-1.8-1.31-4.28-3.1-6-2.85-2.95.42-7.36,3.85-7.41,3.89a.38.38,0,0,1-.27.08,41.33,41.33,0,0,0-8.08-.16c-1.78.26-3.16,1.83-4.38,3.22a9.74,9.74,0,0,1-2.34,2.18A3.81,3.81,0,0,1,249.14,313.26Zm3.52-30c-.28.14-2.82,1.46-3.58,6-.51,3-.43,8.91-.38,13.63,0,3.21.08,6-.08,7.19-.21,1.74.06,2.2.24,2.33s.61.14,1.64-.42a9.87,9.87,0,0,0,2.14-2c1.3-1.48,2.78-3.17,4.84-3.46a39.86,39.86,0,0,1,8.11.14c.76-.59,4.74-3.54,7.65-4,2-.28,4.53,1.53,6.54,3a9.86,9.86,0,0,0,2.44,1.51c.49-1.11-1.9-10.15-4.89-17.49-2.6-6.4-7.1-9.49-12.7-8.69C259.5,281.76,253.2,283.13,252.66,283.25Z" style="fill: rgb(38, 50, 56); transform-origin: 265.4px 296.719px;" id="el2eh130pgvn6" class="animable"></path><path d="M231.39,319c-2.13-3.74-4-3.24-5.18-2,.57,3.94,2.39,16.77,3.66,25.84l.29,0c2.38-.32,5.53-.77,9.21-1.3l.17-.09C237.19,333.78,233.74,323.18,231.39,319Z" style="fill: rgb(255, 255, 255); transform-origin: 232.875px 329.464px;" id="el5nnwcuj5rlq" class="animable"></path><path d="M229.87,343.23a.38.38,0,0,1-.37-.33c-1.2-8.57-3.06-21.73-3.66-25.84a.37.37,0,0,1,.1-.32,2.87,2.87,0,0,1,2.42-1c1.15.16,2.28,1.2,3.35,3.09,2.34,4.12,5.75,14.5,8.19,22.48a.38.38,0,0,1-.23.47l-.15.07-.09,0c-3.69.53-6.84,1-9.22,1.3l-.31,0Zm-3.26-26.09c.61,4.26,2.4,16.86,3.58,25.31l8.88-1.26c-2.42-7.89-5.74-18-8-22-.95-1.68-1.89-2.59-2.8-2.72A2.05,2.05,0,0,0,226.61,317.14Z" style="fill: rgb(38, 50, 56); transform-origin: 232.876px 329.48px;" id="elkohekcx9fr" class="animable"></path><path d="M298.48,333a83.05,83.05,0,0,1,8.74-1.3c-1.15-8.11-2.62-18.26-3.1-24.49C297.73,309.85,297.7,323.57,298.48,333Z" style="fill: rgb(255, 255, 255); transform-origin: 302.677px 320.105px;" id="elp9jgphrp66" class="animable"></path><path d="M298.48,333.33a.37.37,0,0,1-.22-.08.35.35,0,0,1-.15-.26c-.87-10.45-.56-23.47,5.87-26.17a.37.37,0,0,1,.34,0,.42.42,0,0,1,.18.3c.45,5.91,1.82,15.53,2.92,23.25l.17,1.2a.37.37,0,0,1-.08.29.35.35,0,0,1-.25.14,82.17,82.17,0,0,0-8.7,1.3Zm5.31-25.59c-5.74,3.12-5.62,16.58-5,24.76,2.49-.5,5.11-.89,8-1.19l-.11-.81C305.61,323,304.29,313.71,303.79,307.74Z" style="fill: rgb(38, 50, 56); transform-origin: 302.675px 320.054px;" id="el1mdmyu6ptlz" class="animable"></path><path d="M272.77,256.77s.4-8.34,4.37-2.59-3.05,14.64-4,13.2S272.77,256.77,272.77,256.77Z" style="fill: rgb(255, 255, 255); transform-origin: 275.47px 259.847px;" id="el7obsfdopuki" class="animable"></path><path d="M273.41,267.91a.72.72,0,0,1-.62-.32c-1-1.5-.46-9.87-.39-10.84,0-.48.26-4.43,2-4.92.9-.25,1.91.44,3.08,2.13,2.3,3.33,1,7.31,0,9.38-1.15,2.43-2.93,4.48-4,4.57Zm1.33-15.38-.16,0c-.94.27-1.37,3-1.43,4.24h0c-.26,3.49-.41,9.4.26,10.37.17,0,1.09-.51,2.22-2.15,2-2.85,3.47-7.35,1.2-10.63C276,253.18,275.26,252.53,274.74,252.53Zm-2,4.24h0Z" style="fill: rgb(38, 50, 56); transform-origin: 275.477px 259.845px;" id="el3xtlj4nhco7" class="animable"></path><path d="M273.25,261.58h-.07a.37.37,0,0,1-.3-.44c.16-.86,1.05-5.19,2.21-5.89a1.17,1.17,0,0,1,1.08-.14,2.07,2.07,0,0,1,1,1.33.38.38,0,0,1-.28.45.36.36,0,0,1-.45-.27c-.06-.22-.25-.71-.52-.81,0,0-.16-.07-.4.08-.64.39-1.48,3.39-1.86,5.39A.39.39,0,0,1,273.25,261.58Z" style="fill: rgb(38, 50, 56); transform-origin: 275.025px 258.309px;" id="el9gla4u7rihn" class="animable"></path><path d="M275.75,261.55a.37.37,0,0,1-.31-.16.38.38,0,0,1,.1-.52,1.24,1.24,0,0,0,.44-1.34.3.3,0,0,0-.17-.21,3.05,3.05,0,0,0-1.85.3.37.37,0,0,1-.49-.19.36.36,0,0,1,.19-.49,3.69,3.69,0,0,1,2.46-.3,1,1,0,0,1,.58.68,2,2,0,0,1-.73,2.17A.43.43,0,0,1,275.75,261.55Z" style="fill: rgb(38, 50, 56); transform-origin: 275.108px 260.05px;" id="elpxxfbwa5dmh" class="animable"></path><path d="M242,261.15s-2.71-7.91-4.92-1.28,7,13.21,7.56,11.56S242,261.15,242,261.15Z" style="fill: rgb(255, 255, 255); transform-origin: 240.722px 264.455px;" id="eluturbwn8pc" class="animable"></path><path d="M244.21,272.06a2.16,2.16,0,0,1-.67-.13c-2.44-.81-8.73-6.43-6.81-12.18.65-1.95,1.43-2.9,2.36-2.9h0c1.78,0,3.11,3.72,3.26,4.17.34.92,3.22,8.79,2.65,10.52A.77.77,0,0,1,244.21,272.06ZM239.1,257.6h0c-.56,0-1.14.85-1.66,2.39-1.26,3.79,1.43,7.69,4.12,9.88,1.54,1.26,2.58,1.53,2.75,1.42.36-1.1-1.44-6.73-2.66-10h0C241.13,259.74,240,257.6,239.1,257.6Z" style="fill: rgb(38, 50, 56); transform-origin: 240.723px 264.456px;" id="el9gvkhsxe9nc" class="animable"></path><path d="M242.79,265.91a.39.39,0,0,1-.34-.21c-.93-1.82-2.57-4.46-3.3-4.66-.27-.07-.37,0-.4,0-.23.17-.28.69-.27.92a.38.38,0,0,1-.36.39.37.37,0,0,1-.39-.36,2,2,0,0,1,.55-1.54,1.12,1.12,0,0,1,1.07-.17c1.31.35,3.37,4.26,3.77,5a.38.38,0,0,1-.16.5A.41.41,0,0,1,242.79,265.91Z" style="fill: rgb(38, 50, 56); transform-origin: 240.441px 263.062px;" id="els9mn5se0et" class="animable"></path><path d="M240.37,266.58a.25.25,0,0,1-.12,0,2,2,0,0,1-1.31-1.88,1.05,1.05,0,0,1,.37-.81,3.74,3.74,0,0,1,2.45-.4.37.37,0,0,1,.32.42.36.36,0,0,1-.42.32,3.06,3.06,0,0,0-1.86.23.32.32,0,0,0-.11.24,1.24,1.24,0,0,0,.8,1.17.38.38,0,0,1,.24.48A.39.39,0,0,1,240.37,266.58Z" style="fill: rgb(38, 50, 56); transform-origin: 240.512px 265.01px;" id="elmsb4i0p6q58" class="animable"></path><path d="M250.23,277.7s4.33,15.14,5.17,17.94c1,3.27,6.84,11.12,9.83,9.91s3.54-10.24,3.94-12.92-.39-17.56-.39-17.56Z" style="fill: rgb(255, 255, 255); transform-origin: 259.757px 290.373px;" id="ela64zmf5dbup" class="animable"></path><path d="M264.55,306.05a3.41,3.41,0,0,1-1.51-.4c-3.17-1.51-7.16-7.16-8-9.91s-5.13-17.78-5.18-17.93a.37.37,0,0,1,0-.31.39.39,0,0,1,.26-.17l18.56-2.63a.34.34,0,0,1,.29.08.34.34,0,0,1,.13.27c0,.61.8,14.94.39,17.63-.06.41-.12.95-.2,1.6-.6,5.08-1.45,10.59-4,11.61A2.07,2.07,0,0,1,264.55,306.05ZM250.7,278c.71,2.45,4.31,15,5.06,17.51s4.65,8,7.6,9.45a2.16,2.16,0,0,0,1.72.22c2.33-.95,3.13-7.74,3.52-11,.08-.65.14-1.21.2-1.62.36-2.37-.25-14.67-.37-17.07Z" style="fill: rgb(38, 50, 56); transform-origin: 259.716px 290.372px;" id="elvchp6tjy9r" class="animable"></path><path d="M239.76,242.92s.87,14.47,3.9,24.7,12.09,18.41,16.79,18.14,13.6-12.59,13.06-19.23.62-23.37-2.64-29.62-7.78-7.57-17.12-6.64S238.05,236.45,239.76,242.92Z" style="fill: rgb(255, 255, 255); transform-origin: 256.508px 257.884px;" id="elxgb6gyshx1" class="animable"></path><path d="M260.22,286.14c-5.12,0-14-8.49-16.91-18.41s-3.87-23.93-3.92-24.75a8,8,0,0,1,1.22-6.8c2.36-3.4,7.13-5.69,13.1-6.28,9.9-1,14.31.74,17.5,6.84,2.37,4.55,2.43,14.31,2.48,22.16,0,3.08,0,5.73.19,7.6.36,4.32-3.14,10.83-6.78,15-1.44,1.66-4.22,4.47-6.63,4.61Zm-1.76-55.76c-1.4,0-2.95.09-4.68.26-5.66.57-10.36,2.8-12.55,6a7.28,7.28,0,0,0-1.11,6.21.17.17,0,0,1,0,.07c0,.15.91,14.56,3.89,24.62,3,10.22,12.13,18.14,16.41,17.87,1.55-.09,3.78-1.68,6.1-4.35,3.54-4.07,6.94-10.35,6.6-14.46-.16-1.9-.17-4.57-.19-7.66-.05-7.77-.11-17.43-2.4-21.82C268,232.29,264.85,230.38,258.46,230.38Z" style="fill: rgb(38, 50, 56); transform-origin: 256.504px 257.888px;" id="elmp4mqfxncx" class="animable"></path><path d="M241.13,260.08s1.59-.56,1.22-3.19-.93-4.22,0-4.85,2.34-1.17,2.28-4-3.66-4.5-2.9-7.45a7.15,7.15,0,0,1,7.5-4.92c3.39.36,4.3,5.58,9.71,8.33s11.78,1.67,11.78,1.67a2.48,2.48,0,0,0,.26,3,5.33,5.33,0,0,1,1.24,2.84s.46,5.62,1.45,5.48.5-12.95.22-14.92.08-10-6-12.7-14.83-1.91-20.1-.16-8,4.66-9.19,9.51S241.13,260.08,241.13,260.08Z" style="fill: rgb(38, 50, 56); transform-origin: 256.313px 243.846px;" id="el1vm0vqf42c6" class="animable"></path><path d="M241.13,260.45a.39.39,0,0,1-.18,0,.47.47,0,0,1-.19-.25c-.15-.68-3.69-16.68-2.53-21.56s4.09-8,9.43-9.77c5.64-1.88,14.45-2.42,20.37.16,5.45,2.39,5.9,8.82,6.12,11.92,0,.45.05.82.09,1.08.15,1,.33,4.75.37,8.19.06,7-.5,7.09-.91,7.15a.62.62,0,0,1-.51-.15c-.89-.71-1.27-4.52-1.36-5.67a5.23,5.23,0,0,0-1.17-2.64,3.07,3.07,0,0,1-.59-2.74,21.33,21.33,0,0,1-11.32-1.8,17.05,17.05,0,0,1-5.78-5.22c-1.27-1.62-2.28-2.91-3.8-3.06a6.78,6.78,0,0,0-7.1,4.63c-.37,1.44.45,2.58,1.31,3.78A6.45,6.45,0,0,1,245,248c.07,2.72-1.19,3.52-2.11,4.11l-.33.21c-.49.34-.36,1.23-.07,2.91.08.48.17,1,.25,1.58.41,2.89-1.39,3.56-1.46,3.59A.32.32,0,0,1,241.13,260.45ZM258.21,228a33.84,33.84,0,0,0-10.31,1.56c-5.14,1.71-7.81,4.47-8.94,9.23-1,4.23,1.81,17.84,2.42,20.7A2.71,2.71,0,0,0,242,257c-.08-.57-.17-1.09-.25-1.57-.32-1.81-.52-3,.39-3.65l.34-.22c.86-.55,1.83-1.16,1.77-3.46a5.81,5.81,0,0,0-1.46-3.15c-.92-1.29-1.88-2.62-1.43-4.41.81-3.17,4.43-5.55,7.9-5.19,1.84.19,3,1.66,4.32,3.35a16.22,16.22,0,0,0,5.53,5c5.24,2.66,11.49,1.65,11.55,1.64a.35.35,0,0,1,.38.17.36.36,0,0,1,0,.42,2.12,2.12,0,0,0,.26,2.53,5.59,5.59,0,0,1,1.31,3.06,16.39,16.39,0,0,0,1,5c.56-1.71.24-12.3-.05-14.39,0-.27-.07-.66-.1-1.13-.21-3-.63-9.08-5.67-11.28A24.28,24.28,0,0,0,258.21,228Z" style="fill: rgb(38, 50, 56); transform-origin: 256.306px 243.868px;" id="eljuzo5c4i7hg" class="animable"></path><path d="M249.67,266.08a7.34,7.34,0,1,1,1-.07A7.38,7.38,0,0,1,249.67,266.08Zm0-14a7.57,7.57,0,0,0-.95.06,6.62,6.62,0,1,0,4.9,1.26A6.52,6.52,0,0,0,249.69,252.11Z" style="fill: rgb(38, 50, 56); transform-origin: 249.659px 258.74px;" id="elmpshm5i5rsm" class="animable"></path><path d="M265.58,263.82a7.36,7.36,0,0,1-1-14.65,7.36,7.36,0,0,1,8.33,6.25h0a7.34,7.34,0,0,1-7.29,8.4Zm0-14a7.38,7.38,0,0,0-.93.06,6.66,6.66,0,1,0,.93-.06Z" style="fill: rgb(38, 50, 56); transform-origin: 265.61px 256.458px;" id="elbvjmg64dnsn" class="animable"></path><path d="M251.33,258.88c.16,1.13-.18,2.12-.77,2.2s-1.2-.77-1.36-1.9.19-2.12.78-2.2S251.17,257.75,251.33,258.88Z" style="fill: rgb(38, 50, 56); transform-origin: 250.265px 259.03px;" id="el23ay9ql8uyg" class="animable"></path><path d="M264.78,257c.16,1.13-.18,2.11-.77,2.2s-1.2-.77-1.36-1.9.18-2.12.77-2.2S264.62,255.83,264.78,257Z" style="fill: rgb(38, 50, 56); transform-origin: 263.715px 257.151px;" id="ela5k1rc9odo" class="animable"></path><path d="M258.05,253.15a83.34,83.34,0,0,0,.65,10.45c.6,3.1,1.21,5-.76,5.3s-1.94-3.07-1.94-3.07" style="fill: rgb(255, 255, 255); transform-origin: 257.642px 261.034px;" id="elc8lkumgbkh" class="animable"></path><path d="M257.72,269.29a1.58,1.58,0,0,1-1.08-.41c-1-.88-1-3-1-3.06a.38.38,0,0,1,.37-.37h0a.38.38,0,0,1,.38.38,3.85,3.85,0,0,0,.75,2.49.92.92,0,0,0,.76.21,1.15,1.15,0,0,0,.82-.41c.41-.58.13-1.9-.21-3.58l-.17-.87a83.75,83.75,0,0,1-.66-10.51.38.38,0,0,1,.38-.38.36.36,0,0,1,.37.37,83,83,0,0,0,.65,10.38l.17.86c.39,1.93.68,3.32.08,4.17a1.85,1.85,0,0,1-1.32.71Z" style="fill: rgb(38, 50, 56); transform-origin: 257.657px 261.035px;" id="el3nlus1p8f6y" class="animable"></path><path d="M252.25,271.21s5.71,3.71,12.79-1.82" style="fill: rgb(255, 255, 255); transform-origin: 258.645px 270.909px;" id="elltpqo2z9ytr" class="animable"></path><path d="M257.07,272.79a10,10,0,0,1-5-1.26.37.37,0,0,1-.11-.52.36.36,0,0,1,.51-.11c.23.14,5.59,3.48,12.36-1.8a.37.37,0,1,1,.46.59A13.21,13.21,0,0,1,257.07,272.79Z" style="fill: rgb(38, 50, 56); transform-origin: 258.665px 270.906px;" id="elrtgl4afh2m" class="animable"></path><path d="M256.76,257.39a.36.36,0,0,1-.37-.32.37.37,0,0,1,.32-.42l2-.28a.36.36,0,0,1,.43.32.38.38,0,0,1-.32.42l-2,.28Z" style="fill: rgb(38, 50, 56); transform-origin: 257.764px 256.877px;" id="elu1msrgqvmrh" class="animable"></path><path d="M240.87,259.82a.38.38,0,0,1-.05-.75l1.48-.21a.38.38,0,0,1,.1.75l-1.47.21Z" style="fill: rgb(38, 50, 56); transform-origin: 241.608px 259.34px;" id="eldanz538uvyg" class="animable"></path><path d="M272.52,255.32a.38.38,0,0,1-.37-.32.38.38,0,0,1,.32-.43l1.48-.21a.38.38,0,0,1,.1.75l-1.47.21Z" style="fill: rgb(38, 50, 56); transform-origin: 273.245px 254.84px;" id="elntudk7o4jh8" class="animable"></path><path d="M244.88,253.35a1.07,1.07,0,0,1-.48-.12,1,1,0,0,1-.39-1.36c1-1.8,4.08-4.59,8.74-2.31a1,1,0,1,1-.88,1.8c-4.13-2-6,1.33-6.11,1.47A1,1,0,0,1,244.88,253.35Z" style="fill: rgb(38, 50, 56); transform-origin: 248.599px 251.026px;" id="ell2czslm3wl" class="animable"></path><path d="M260.63,251.11a1,1,0,0,1-.88-1.48c1-1.8,4.09-4.59,8.74-2.31a1,1,0,0,1-.87,1.8c-4.13-2-6,1.33-6.12,1.47A1,1,0,0,1,260.63,251.11Z" style="fill: rgb(38, 50, 56); transform-origin: 264.329px 248.786px;" id="el9mfgvp4yemv" class="animable"></path><line x1="249.14" y1="262.28" x2="252.42" y2="261.82" style="fill: rgb(255, 255, 255); transform-origin: 250.78px 262.05px;" id="elftugopg4pee" class="animable"></line><path d="M249.14,262.66a.38.38,0,0,1,0-.75l3.28-.46a.36.36,0,0,1,.42.32.37.37,0,0,1-.32.42l-3.28.47Z" style="fill: rgb(38, 50, 56); transform-origin: 250.833px 262.052px;" id="el7q2rh2odh6t" class="animable"></path><line x1="262.59" y1="260.37" x2="265.87" y2="259.91" style="fill: rgb(255, 255, 255); transform-origin: 264.23px 260.14px;" id="el75hr2qre8ix" class="animable"></line><path d="M262.59,260.75a.37.37,0,0,1-.37-.32.38.38,0,0,1,.32-.43l3.28-.46a.37.37,0,0,1,.42.31.38.38,0,0,1-.32.43l-3.28.46Z" style="fill: rgb(38, 50, 56); transform-origin: 264.23px 260.143px;" id="eluocrfu1ccm8" class="animable"></path><g id="elajoxj9z01h"><rect x="215.56" y="351.48" width="115.65" height="39.64" style="fill: rgb(38, 50, 56); transform-origin: 273.385px 371.3px; transform: rotate(-8.09deg);" class="animable" id="elbos0ay35u3v"></rect></g><g id="elcvfdk9kn4h8"><rect x="253.99" y="357.49" width="34.81" height="2" style="fill: rgb(255, 255, 255); transform-origin: 271.395px 358.49px; transform: rotate(-8.04906deg);" class="animable" id="elkfzr3zd88t"></rect></g><g id="el7tbz28vpzfu"><rect x="230.76" y="378.94" width="87.38" height="2" style="fill: rgb(255, 255, 255); transform-origin: 274.45px 379.94px; transform: rotate(-8.04906deg);" class="animable" id="elc7uv2g5nyci"></rect></g><g id="el5uqfw2srz6n"><rect x="249.77" y="362.76" width="44.76" height="2" style="fill: rgb(255, 255, 255); transform-origin: 272.15px 363.76px; transform: rotate(-8.04906deg);" class="animable" id="elp71pqxz2l8"></rect></g><g id="ell9dc9r94jgn"><rect x="243.49" y="370.22" width="0.46" height="7.93" style="fill: rgb(38, 50, 56); transform-origin: 243.72px 374.185px; transform: rotate(-8.04906deg);" class="animable" id="elncy9anf6k3"></rect></g><g id="ellll1nbuuvh"><rect x="248.16" y="369.56" width="0.46" height="7.93" style="fill: rgb(38, 50, 56); transform-origin: 248.39px 373.525px; transform: rotate(-8.04906deg);" class="animable" id="elrtqynbvc0c"></rect></g><g id="el7afugply73w"><rect x="249.1" y="369.43" width="0.46" height="7.93" style="fill: rgb(38, 50, 56); transform-origin: 249.33px 373.395px; transform: rotate(-8.09deg);" class="animable" id="el6nnudpxzrli"></rect></g><g id="elfluzn3iwr4m"><rect x="250.22" y="369.27" width="0.46" height="7.93" style="fill: rgb(38, 50, 56); transform-origin: 250.45px 373.235px; transform: rotate(-8.09deg);" class="animable" id="elrtbub382yib"></rect></g><g id="elsvwwdu3v04"><rect x="252.67" y="368.92" width="0.46" height="7.93" style="fill: rgb(38, 50, 56); transform-origin: 252.9px 372.885px; transform: rotate(-8.09deg);" class="animable" id="elol8lmrazhbm"></rect></g><g id="elf4vj7tape7d"><rect x="253.61" y="368.79" width="0.46" height="7.93" style="fill: rgb(38, 50, 56); transform-origin: 253.84px 372.755px; transform: rotate(-8.09deg);" class="animable" id="elcpkxp5do1f"></rect></g><g id="el9lqq5pchpcm"><rect x="244.76" y="370.01" width="0.92" height="7.93" style="fill: rgb(38, 50, 56); transform-origin: 245.22px 373.975px; transform: rotate(-8.04906deg);" class="animable" id="elsuwtuo7car"></rect></g><g id="elrn0gf74nt3h"><rect x="258.07" y="368.15" width="0.46" height="7.93" style="fill: rgb(38, 50, 56); transform-origin: 258.3px 372.115px; transform: rotate(-8.09deg);" class="animable" id="el7550li2ub8u"></rect></g><g id="elzq19bzfkqc"><rect x="259.34" y="367.94" width="0.92" height="7.93" style="fill: rgb(38, 50, 56); transform-origin: 259.8px 371.905px; transform: rotate(-8.09deg);" class="animable" id="el5c2pj5qtt5"></rect></g><g id="elp1lgsn3r74"><rect x="247" y="369.69" width="0.92" height="7.93" style="fill: rgb(38, 50, 56); transform-origin: 247.46px 373.655px; transform: rotate(-8.09deg);" class="animable" id="elfitkxupr68v"></rect></g><g id="elztlxebk076c"><rect x="251.51" y="369.05" width="0.92" height="7.93" style="fill: rgb(38, 50, 56); transform-origin: 251.97px 373.015px; transform: rotate(-8.04906deg);" class="animable" id="ely6xf0z4jxd"></rect></g><g id="ela7zkwhaeky5"><rect x="255.66" y="368.49" width="0.46" height="7.93" style="fill: rgb(38, 50, 56); transform-origin: 255.89px 372.455px; transform: rotate(-8.09deg);" class="animable" id="elx6xfckw4dlf"></rect></g><g id="elkeh8fswige"><rect x="256.6" y="368.36" width="0.46" height="7.93" style="fill: rgb(38, 50, 56); transform-origin: 256.83px 372.325px; transform: rotate(-8.09deg);" class="animable" id="elq685eoxyw2"></rect></g><g id="elaylubnl5dos"><rect x="254.5" y="368.63" width="0.92" height="7.93" style="fill: rgb(38, 50, 56); transform-origin: 254.96px 372.595px; transform: rotate(-8.09deg);" class="animable" id="elh93xq7kw1iw"></rect></g><g id="elplh9mwvt7xc"><rect x="261.62" y="367.65" width="0.46" height="7.93" style="fill: rgb(38, 50, 56); transform-origin: 261.85px 371.615px; transform: rotate(-8.09deg);" class="animable" id="elsjuafmj0e3"></rect></g><g id="el1z4myob8pat"><rect x="266.3" y="366.98" width="0.46" height="7.93" style="fill: rgb(38, 50, 56); transform-origin: 266.53px 370.945px; transform: rotate(-8.09deg);" class="animable" id="elb0pia2zrdta"></rect></g><g id="elcm1t2ogu9g"><rect x="267.23" y="366.85" width="0.46" height="7.93" style="fill: rgb(38, 50, 56); transform-origin: 267.46px 370.815px; transform: rotate(-8.09deg);" class="animable" id="eljj2e3re2qh"></rect></g><g id="elxzcm4w05u8"><rect x="268.35" y="366.69" width="0.46" height="7.93" style="fill: rgb(38, 50, 56); transform-origin: 268.58px 370.655px; transform: rotate(-8.09deg);" class="animable" id="elcdr1t9k02fc"></rect></g><g id="elx0fy8e8zm7"><rect x="270.81" y="366.34" width="0.46" height="7.93" style="fill: rgb(38, 50, 56); transform-origin: 271.04px 370.305px; transform: rotate(-8.09deg);" class="animable" id="el1e2vaaekhvqi"></rect></g><g id="elal5beajypeg"><rect x="271.74" y="366.21" width="0.46" height="7.93" style="fill: rgb(38, 50, 56); transform-origin: 271.97px 370.175px; transform: rotate(-8.1deg);" class="animable" id="elf0fqm9qlssd"></rect></g><g id="elp0vs246vjff"><rect x="262.89" y="367.43" width="0.92" height="7.93" style="fill: rgb(38, 50, 56); transform-origin: 263.35px 371.395px; transform: rotate(-8.1deg);" class="animable" id="el1cy58dhwkrv"></rect></g><g id="el5asv2oo7ajb"><rect x="276.2" y="365.57" width="0.46" height="7.93" style="fill: rgb(38, 50, 56); transform-origin: 276.43px 369.535px; transform: rotate(-8.1deg);" class="animable" id="el2s72qxm04c2"></rect></g><g id="elfh8iq48anm"><rect x="277.47" y="365.36" width="0.92" height="7.93" style="fill: rgb(38, 50, 56); transform-origin: 277.93px 369.325px; transform: rotate(-8.09deg);" class="animable" id="el8hdy81lb85u"></rect></g><g id="el537vpdkfxwo"><rect x="265.13" y="367.11" width="0.92" height="7.93" style="fill: rgb(38, 50, 56); transform-origin: 265.59px 371.075px; transform: rotate(-8.04906deg);" class="animable" id="elvlkdrvxwboi"></rect></g><g id="elv5zy6bjh59i"><rect x="269.64" y="366.47" width="0.92" height="7.93" style="fill: rgb(38, 50, 56); transform-origin: 270.1px 370.435px; transform: rotate(-8.04906deg);" class="animable" id="elq9beh58tn7l"></rect></g><g id="elcgj9yntzajc"><rect x="273.8" y="365.92" width="0.46" height="7.93" style="fill: rgb(38, 50, 56); transform-origin: 274.03px 369.885px; transform: rotate(-8.09deg);" class="animable" id="el8lyod22av5k"></rect></g><g id="elb6gy27eb5g6"><rect x="274.73" y="365.78" width="0.46" height="7.93" style="fill: rgb(38, 50, 56); transform-origin: 274.96px 369.745px; transform: rotate(-8.09deg);" class="animable" id="el51z9qeiauv"></rect></g><g id="elofdocz3u3vm"><rect x="272.63" y="366.05" width="0.92" height="7.93" style="fill: rgb(38, 50, 56); transform-origin: 273.09px 370.015px; transform: rotate(-8.09deg);" class="animable" id="elfqo80d7j7qq"></rect></g><g id="eltlan7l3s8l"><rect x="279.22" y="365.14" width="0.46" height="7.93" style="fill: rgb(38, 50, 56); transform-origin: 279.45px 369.105px; transform: rotate(-8.09deg);" class="animable" id="eldo7l43c2cic"></rect></g><g id="el6lnb1f0rv34"><rect x="280.15" y="365.01" width="0.46" height="7.93" style="fill: rgb(38, 50, 56); transform-origin: 280.38px 368.975px; transform: rotate(-8.09deg);" class="animable" id="ela0am3zuz6je"></rect></g><g id="elzuy17psc7d"><rect x="284.62" y="364.38" width="0.46" height="7.93" style="fill: rgb(38, 50, 56); transform-origin: 284.85px 368.345px; transform: rotate(-8.09deg);" class="animable" id="el4zvi4s93m4w"></rect></g><g id="elpugnrhss0ed"><rect x="285.88" y="364.17" width="0.92" height="7.93" style="fill: rgb(38, 50, 56); transform-origin: 286.34px 368.135px; transform: rotate(-8.09deg);" class="animable" id="el15yp0vzvjm4"></rect></g><g id="elq447zg8x4nh"><rect x="282.21" y="364.72" width="0.46" height="7.93" style="fill: rgb(38, 50, 56); transform-origin: 282.44px 368.685px; transform: rotate(-8.09deg);" class="animable" id="elvbk3kq7gmde"></rect></g><g id="elfspi71ws9qj"><rect x="283.14" y="364.59" width="0.46" height="7.93" style="fill: rgb(38, 50, 56); transform-origin: 283.37px 368.555px; transform: rotate(-8.09deg);" class="animable" id="el0o71j51fcid"></rect></g><g id="elnavmaor4hzm"><rect x="281.05" y="364.85" width="0.92" height="7.93" style="fill: rgb(38, 50, 56); transform-origin: 281.51px 368.815px; transform: rotate(-8.04906deg);" class="animable" id="ell49f5ltqd3l"></rect></g><g id="elrsi3oc8l9ml"><rect x="288.17" y="363.87" width="0.46" height="7.93" style="fill: rgb(38, 50, 56); transform-origin: 288.4px 367.835px; transform: rotate(-8.04906deg);" class="animable" id="elatc7hbzmpu"></rect></g><g id="elrhiwjlstdcq"><rect x="292.84" y="363.21" width="0.46" height="7.93" style="fill: rgb(38, 50, 56); transform-origin: 293.07px 367.175px; transform: rotate(-8.04906deg);" class="animable" id="eloqx6ks18hh8"></rect></g><g id="el9q4cmulspts"><rect x="293.77" y="363.08" width="0.46" height="7.93" style="fill: rgb(38, 50, 56); transform-origin: 294px 367.045px; transform: rotate(-8.09deg);" class="animable" id="elgtcus7ng3wu"></rect></g><g id="eljb878usrh5i"><rect x="294.9" y="362.92" width="0.46" height="7.93" style="fill: rgb(38, 50, 56); transform-origin: 295.13px 366.885px; transform: rotate(-8.09deg);" class="animable" id="eli9gqwlp55si"></rect></g><g id="elhs3k6u1yc3a"><rect x="297.35" y="362.57" width="0.46" height="7.93" style="fill: rgb(38, 50, 56); transform-origin: 297.58px 366.535px; transform: rotate(-8.09deg);" class="animable" id="el9s2pz98qpt"></rect></g><g id="elo3kv8kjm37"><rect x="298.29" y="362.43" width="0.46" height="7.93" style="fill: rgb(38, 50, 56); transform-origin: 298.52px 366.395px; transform: rotate(-8.04906deg);" class="animable" id="el2obs67mzi08"></rect></g><g id="ele87bu8o8lma"><rect x="289.43" y="363.66" width="0.92" height="7.93" style="fill: rgb(38, 50, 56); transform-origin: 289.89px 367.625px; transform: rotate(-8.1deg);" class="animable" id="el4r07nnzb3zs"></rect></g><g id="elgw3beouupwe"><rect x="302.75" y="361.8" width="0.46" height="7.93" style="fill: rgb(38, 50, 56); transform-origin: 302.98px 365.765px; transform: rotate(-8.09deg);" class="animable" id="el7bth8izk39m"></rect></g><g id="eltdbav77wxvo"><rect x="304.01" y="361.59" width="0.92" height="7.93" style="fill: rgb(38, 50, 56); transform-origin: 304.47px 365.555px; transform: rotate(-8.09deg);" class="animable" id="eljnudzz553ul"></rect></g><g id="elzgbopf9tce"><rect x="291.68" y="363.34" width="0.92" height="7.93" style="fill: rgb(38, 50, 56); transform-origin: 292.14px 367.305px; transform: rotate(-8.09deg);" class="animable" id="eluppixbqupte"></rect></g><g id="el4sizssxvm7m"><rect x="296.19" y="362.7" width="0.92" height="7.93" style="fill: rgb(38, 50, 56); transform-origin: 296.65px 366.665px; transform: rotate(-8.04906deg);" class="animable" id="elzfxzf3dj9l"></rect></g><g id="elhzby5e83ytl"><rect x="300.34" y="362.14" width="0.46" height="7.93" style="fill: rgb(38, 50, 56); transform-origin: 300.57px 366.105px; transform: rotate(-8.09deg);" class="animable" id="elb2ixf27blxi"></rect></g><g id="eln3wg7iq3aub"><rect x="301.28" y="362.01" width="0.46" height="7.93" style="fill: rgb(38, 50, 56); transform-origin: 301.51px 365.975px; transform: rotate(-8.1deg);" class="animable" id="el54k43bvt23k"></rect></g><g id="elthln6i4idma"><rect x="299.18" y="362.27" width="0.92" height="7.93" style="fill: rgb(38, 50, 56); transform-origin: 299.64px 366.235px; transform: rotate(-8.09deg);" class="animable" id="ele9kq4c5z6m"></rect></g><path d="M243.87,165.64a2.08,2.08,0,0,1-.55-.07,2,2,0,0,1-1.38-2.47c.11-.39,2.83-9.8,13.89-25.15a2,2,0,0,1,3.25,2.34c-10.59,14.7-13.26,23.81-13.29,23.9A2,2,0,0,1,243.87,165.64Z" style="fill: rgb(38, 50, 56); transform-origin: 250.661px 151.379px;" id="el8dvbwvxrxi" class="animable"></path></g><defs>     <filter id="active" height="200%">         <feMorphology in="SourceAlpha" result="DILATED" operator="dilate" radius="2"></feMorphology>                <feFlood flood-color="#32DFEC" flood-opacity="1" result="PINK"></feFlood>        <feComposite in="PINK" in2="DILATED" operator="in" result="OUTLINE"></feComposite>        <feMerge>            <feMergeNode in="OUTLINE"></feMergeNode>            <feMergeNode in="SourceGraphic"></feMergeNode>        </feMerge>    </filter>    <filter id="hover" height="200%">        <feMorphology in="SourceAlpha" result="DILATED" operator="dilate" radius="2"></feMorphology>                <feFlood flood-color="#ff0000" flood-opacity="0.5" result="PINK"></feFlood>        <feComposite in="PINK" in2="DILATED" operator="in" result="OUTLINE"></feComposite>        <feMerge>            <feMergeNode in="OUTLINE"></feMergeNode>            <feMergeNode in="SourceGraphic"></feMergeNode>        </feMerge>            <feColorMatrix type="matrix" values="0   0   0   0   0                0   1   0   0   0                0   0   0   0   0                0   0   0   1   0 "></feColorMatrix>    </filter></defs></svg>